<svg width="57.178" height="71.729" viewBox="0 0 57.178 71.729" xmlns="http://www.w3.org/2000/svg"><g id="svgGroup" stroke-linecap="round" fill-rule="evenodd" font-size="9pt" stroke="#000" stroke-width="0.25mm" fill="#ffff00" style="stroke:#000;stroke-width:0.25mm;fill:#ffff00"><path d="M 15.772 42.041 L 15.772 69.141 A 5.508 5.508 0 0 1 15.731 69.836 Q 15.635 70.587 15.312 71.002 A 1.343 1.343 0 0 1 15.161 71.167 Q 14.604 71.679 13.336 71.724 A 7.074 7.074 0 0 1 13.086 71.729 L 2.686 71.729 A 6.023 6.023 0 0 1 1.968 71.689 Q 1.059 71.579 0.61 71.167 A 1.556 1.556 0 0 1 0.238 70.619 Q 0.033 70.133 0.005 69.384 A 6.493 6.493 0 0 1 0 69.141 L 0 9.521 A 6.598 6.598 0 0 1 0.043 8.741 Q 0.143 7.903 0.477 7.391 A 1.98 1.98 0 0 1 0.488 7.373 Q 2.289 4.733 5.269 1.863 A 56.773 56.773 0 0 1 6.641 0.586 A 4.157 4.157 0 0 1 7.027 0.309 Q 7.52 0 7.91 0 A 1.346 1.346 0 0 1 8.451 0.12 Q 8.649 0.207 8.851 0.355 A 3.176 3.176 0 0 1 9.131 0.586 Q 11.279 2.441 12.744 4.126 A 40.617 40.617 0 0 1 14.269 5.982 A 31.773 31.773 0 0 1 15.283 7.373 Q 15.655 7.968 15.744 8.904 A 6.562 6.562 0 0 1 15.772 9.521 L 15.772 29.785 L 16.895 29.785 A 36.322 36.322 0 0 0 20.82 29.586 Q 22.781 29.372 24.431 28.929 A 16.384 16.384 0 0 0 26.807 28.101 A 16.325 16.325 0 0 0 29.944 26.299 A 12.449 12.449 0 0 0 32.666 23.56 A 16.901 16.901 0 0 0 35.474 17.188 A 34.009 34.009 0 0 0 36.231 10.01 L 36.231 9.521 A 6.598 6.598 0 0 1 36.274 8.741 Q 36.374 7.903 36.707 7.391 A 1.98 1.98 0 0 1 36.719 7.373 Q 38.519 4.733 41.499 1.863 A 56.773 56.773 0 0 1 42.871 0.586 A 4.157 4.157 0 0 1 43.257 0.309 Q 43.75 0 44.141 0 A 1.346 1.346 0 0 1 44.682 0.12 Q 44.879 0.207 45.082 0.355 A 3.176 3.176 0 0 1 45.361 0.586 Q 47.51 2.441 48.975 4.126 A 40.617 40.617 0 0 1 50.499 5.982 A 31.773 31.773 0 0 1 51.514 7.373 Q 51.886 7.968 51.974 8.904 A 6.562 6.562 0 0 1 52.002 9.521 L 52.002 10.01 A 43.9 43.9 0 0 1 51.486 16.614 A 49.962 49.962 0 0 1 51.221 18.188 A 27.982 27.982 0 0 1 48.462 26.172 Q 46.484 29.932 42.896 32.593 A 16.905 16.905 0 0 1 38.643 34.85 Q 36.739 35.552 34.488 35.948 A 29.946 29.946 0 0 1 33.643 36.084 L 33.643 36.426 A 23.465 23.465 0 0 1 42.7 41.772 A 40.31 40.31 0 0 1 49.585 50.293 A 61.287 61.287 0 0 1 53.597 58.063 A 54.774 54.774 0 0 1 54.346 59.912 A 71.322 71.322 0 0 1 55.72 63.808 Q 56.531 66.353 56.982 68.555 Q 57.373 70.361 56.982 71.045 Q 56.633 71.656 55.426 71.721 A 5.578 5.578 0 0 1 55.127 71.729 L 43.164 71.729 Q 40.951 71.729 40.358 69.916 A 3.919 3.919 0 0 1 40.234 69.434 A 29.715 29.715 0 0 0 39.348 66.069 Q 38.803 64.38 38.024 62.531 A 56.259 56.259 0 0 0 37.378 61.06 A 51.366 51.366 0 0 0 32.08 52.051 Q 28.906 47.705 25.024 44.873 Q 21.143 42.041 16.895 42.041 L 15.772 42.041 Z" vector-effect="non-scaling-stroke"/></g></svg>