<svg width="486.801" height="90.9" viewBox="0 0 486.801 90.9" xmlns="http://www.w3.org/2000/svg"><g id="svgGroup" stroke-linecap="round" fill-rule="evenodd" font-size="9pt" stroke="#000" stroke-width="0.50mm" fill="#eb7979" style="stroke:#000;stroke-width:0.50mm;fill:#eb7979"><path d="M 58.8 48.1 L 58.9 41.8 L 92.9 41.8 A 27.796 27.796 0 0 0 92.505 37.322 Q 91.698 32.758 89.25 30 A 11.168 11.168 0 0 0 84.101 26.766 Q 82.263 26.191 80.031 26.048 A 23.86 23.86 0 0 0 78.5 26 Q 72.873 26 69.373 28.399 A 11.149 11.149 0 0 0 66.8 30.85 A 15.689 15.689 0 0 0 64.422 35.505 Q 63.72 37.639 63.39 40.242 A 39.615 39.615 0 0 0 63.1 45.2 A 41.321 41.321 0 0 0 63.422 50.541 Q 63.773 53.227 64.507 55.415 A 15.99 15.99 0 0 0 66.75 59.85 A 11.163 11.163 0 0 0 72.082 63.712 Q 75.075 64.8 79.2 64.8 A 29.154 29.154 0 0 0 82.187 64.658 Q 85.255 64.341 87.13 63.316 A 6.99 6.99 0 0 0 87.8 62.9 Q 90.5 61 91.5 57.8 L 100.2 57.8 Q 99.2 61.8 96.6 64.95 A 16.696 16.696 0 0 1 91.891 68.848 A 20.813 20.813 0 0 1 89.75 69.9 Q 86.247 71.384 81.352 71.644 A 40.463 40.463 0 0 1 79.2 71.7 A 33.247 33.247 0 0 1 72.113 70.992 Q 67.596 70.006 64.244 67.648 A 18.602 18.602 0 0 1 61.05 64.8 A 22.696 22.696 0 0 1 56.297 56.042 Q 55.271 52.602 54.999 48.475 A 46.687 46.687 0 0 1 54.9 45.4 Q 54.9 36.409 57.982 30.375 A 20.61 20.61 0 0 1 61.05 25.9 A 19.969 19.969 0 0 1 71.639 19.832 A 30.318 30.318 0 0 1 78.5 19.1 A 25.632 25.632 0 0 1 86.164 20.22 A 23.146 23.146 0 0 1 89.8 21.7 A 18.411 18.411 0 0 1 96.437 27.498 A 23.738 23.738 0 0 1 98 30 A 22.582 22.582 0 0 1 100.007 35.275 Q 101.1 39.6 101.1 45.3 L 101.1 48.1 L 58.8 48.1 Z M 114 48.1 L 114.1 41.8 L 148.1 41.8 A 27.796 27.796 0 0 0 147.705 37.322 Q 146.898 32.758 144.45 30 A 11.168 11.168 0 0 0 139.301 26.766 Q 137.463 26.191 135.231 26.048 A 23.86 23.86 0 0 0 133.7 26 Q 128.073 26 124.573 28.399 A 11.149 11.149 0 0 0 122 30.85 A 15.689 15.689 0 0 0 119.622 35.505 Q 118.92 37.639 118.59 40.242 A 39.615 39.615 0 0 0 118.3 45.2 A 41.321 41.321 0 0 0 118.622 50.541 Q 118.973 53.227 119.707 55.415 A 15.99 15.99 0 0 0 121.95 59.85 A 11.163 11.163 0 0 0 127.282 63.712 Q 130.275 64.8 134.4 64.8 A 29.154 29.154 0 0 0 137.387 64.658 Q 140.455 64.341 142.33 63.316 A 6.99 6.99 0 0 0 143 62.9 Q 145.7 61 146.7 57.8 L 155.4 57.8 Q 154.4 61.8 151.8 64.95 A 16.696 16.696 0 0 1 147.091 68.848 A 20.813 20.813 0 0 1 144.95 69.9 Q 141.447 71.384 136.552 71.644 A 40.463 40.463 0 0 1 134.4 71.7 A 33.247 33.247 0 0 1 127.313 70.992 Q 122.796 70.006 119.444 67.648 A 18.602 18.602 0 0 1 116.25 64.8 A 22.696 22.696 0 0 1 111.497 56.042 Q 110.471 52.602 110.199 48.475 A 46.687 46.687 0 0 1 110.1 45.4 Q 110.1 36.409 113.182 30.375 A 20.61 20.61 0 0 1 116.25 25.9 A 19.969 19.969 0 0 1 126.839 19.832 A 30.318 30.318 0 0 1 133.7 19.1 A 25.632 25.632 0 0 1 141.364 20.22 A 23.146 23.146 0 0 1 145 21.7 A 18.411 18.411 0 0 1 151.637 27.498 A 23.738 23.738 0 0 1 153.2 30 A 22.582 22.582 0 0 1 155.207 35.275 Q 156.3 39.6 156.3 45.3 L 156.3 48.1 L 114 48.1 Z M 228.8 48.1 L 228.9 41.8 L 262.9 41.8 A 27.796 27.796 0 0 0 262.505 37.322 Q 261.698 32.758 259.25 30 A 11.168 11.168 0 0 0 254.101 26.766 Q 252.263 26.191 250.031 26.048 A 23.86 23.86 0 0 0 248.5 26 Q 242.873 26 239.373 28.399 A 11.149 11.149 0 0 0 236.8 30.85 A 15.689 15.689 0 0 0 234.422 35.505 Q 233.72 37.639 233.39 40.242 A 39.615 39.615 0 0 0 233.1 45.2 A 41.321 41.321 0 0 0 233.422 50.541 Q 233.773 53.227 234.507 55.415 A 15.99 15.99 0 0 0 236.75 59.85 A 11.163 11.163 0 0 0 242.082 63.712 Q 245.075 64.8 249.2 64.8 A 29.154 29.154 0 0 0 252.187 64.658 Q 255.255 64.341 257.13 63.316 A 6.99 6.99 0 0 0 257.8 62.9 Q 260.5 61 261.5 57.8 L 270.2 57.8 Q 269.2 61.8 266.6 64.95 A 16.696 16.696 0 0 1 261.891 68.848 A 20.813 20.813 0 0 1 259.75 69.9 Q 256.247 71.384 251.352 71.644 A 40.463 40.463 0 0 1 249.2 71.7 A 33.247 33.247 0 0 1 242.113 70.992 Q 237.596 70.006 234.244 67.648 A 18.602 18.602 0 0 1 231.05 64.8 A 22.696 22.696 0 0 1 226.297 56.042 Q 225.271 52.602 224.999 48.475 A 46.687 46.687 0 0 1 224.9 45.4 Q 224.9 36.409 227.982 30.375 A 20.61 20.61 0 0 1 231.05 25.9 A 19.969 19.969 0 0 1 241.639 19.832 A 30.318 30.318 0 0 1 248.5 19.1 A 25.632 25.632 0 0 1 256.164 20.22 A 23.146 23.146 0 0 1 259.8 21.7 A 18.411 18.411 0 0 1 266.437 27.498 A 23.738 23.738 0 0 1 268 30 A 22.582 22.582 0 0 1 270.007 35.275 Q 271.1 39.6 271.1 45.3 L 271.1 48.1 L 228.8 48.1 Z M 361 70.7 L 339.7 10.8 L 339.2 10.8 L 317.8 70.7 L 309.3 70.7 L 335.2 0 L 344 0 L 370 70.7 L 361 70.7 Z M 291.5 40.8 L 291.5 70.7 L 283.3 70.7 L 283.3 20.2 L 291.5 20.2 L 291.5 29.1 A 17.28 17.28 0 0 1 293.467 25.561 A 13.389 13.389 0 0 1 296.55 22.5 A 12.168 12.168 0 0 1 301.124 20.551 A 17.302 17.302 0 0 1 304.7 20.2 L 309.2 20.2 L 309.2 27.2 L 303.6 27.2 A 16.338 16.338 0 0 0 300.03 27.566 Q 297.676 28.093 295.948 29.379 A 9.472 9.472 0 0 0 294.6 30.6 A 10.662 10.662 0 0 0 292.427 34.379 Q 291.877 35.984 291.653 37.946 A 25.242 25.242 0 0 0 291.5 40.8 Z M 8.6 0 L 8.6 70.7 L 0 70.7 L 0 0 L 8.6 0 Z M 169 20.2 L 177.2 20.2 L 177.2 90.9 L 169 90.9 L 169 20.2 Z M 380.4 20.2 L 388.6 20.2 L 388.6 90.9 L 380.4 90.9 L 380.4 20.2 Z M 440.1 20.2 L 448.3 20.2 L 448.3 90.9 L 440.1 90.9 L 440.1 20.2 Z M 188.928 71.155 A 22.443 22.443 0 0 0 194 71.7 Q 204.3 71.7 210 65.05 Q 213.941 60.452 215.157 52.867 A 46.634 46.634 0 0 0 215.7 45.5 A 54.098 54.098 0 0 0 215.646 43.059 Q 215.33 36.05 213.15 31.05 A 23.221 23.221 0 0 0 212.019 28.791 A 18.228 18.228 0 0 0 205.75 22.2 Q 200.9 19.2 194 19.2 A 22.913 22.913 0 0 0 189.475 19.626 A 16.39 16.39 0 0 0 182.85 22.5 A 17.474 17.474 0 0 0 178.879 26.617 A 21.548 21.548 0 0 0 176.3 31.75 A 35.563 35.563 0 0 0 174.658 38.621 A 49.192 49.192 0 0 0 174.2 45.5 Q 174.2 49.217 174.677 52.503 A 34.884 34.884 0 0 0 176.3 59.2 A 23.262 23.262 0 0 0 177.413 61.823 A 18.159 18.159 0 0 0 182.85 68.4 A 16.219 16.219 0 0 0 188.928 71.155 Z M 400.328 71.155 A 22.443 22.443 0 0 0 405.4 71.7 Q 415.7 71.7 421.4 65.05 Q 425.341 60.452 426.557 52.867 A 46.634 46.634 0 0 0 427.1 45.5 A 54.098 54.098 0 0 0 427.046 43.059 Q 426.73 36.05 424.55 31.05 A 23.221 23.221 0 0 0 423.419 28.791 A 18.228 18.228 0 0 0 417.15 22.2 Q 412.3 19.2 405.4 19.2 A 22.913 22.913 0 0 0 400.875 19.626 A 16.39 16.39 0 0 0 394.25 22.5 A 17.474 17.474 0 0 0 390.279 26.617 A 21.548 21.548 0 0 0 387.7 31.75 A 35.563 35.563 0 0 0 386.058 38.621 A 49.192 49.192 0 0 0 385.6 45.5 Q 385.6 49.217 386.077 52.503 A 34.884 34.884 0 0 0 387.7 59.2 A 23.262 23.262 0 0 0 388.813 61.823 A 18.159 18.159 0 0 0 394.25 68.4 A 16.219 16.219 0 0 0 400.328 71.155 Z M 460.028 71.155 A 22.443 22.443 0 0 0 465.1 71.7 Q 475.4 71.7 481.1 65.05 Q 485.041 60.452 486.257 52.867 A 46.634 46.634 0 0 0 486.8 45.5 A 54.098 54.098 0 0 0 486.746 43.059 Q 486.43 36.05 484.25 31.05 A 23.221 23.221 0 0 0 483.119 28.791 A 18.228 18.228 0 0 0 476.85 22.2 Q 472 19.2 465.1 19.2 A 22.913 22.913 0 0 0 460.575 19.626 A 16.39 16.39 0 0 0 453.95 22.5 A 17.474 17.474 0 0 0 449.979 26.617 A 21.548 21.548 0 0 0 447.4 31.75 A 35.563 35.563 0 0 0 445.758 38.621 A 49.192 49.192 0 0 0 445.3 45.5 Q 445.3 49.217 445.777 52.503 A 34.884 34.884 0 0 0 447.4 59.2 A 23.262 23.262 0 0 0 448.513 61.823 A 18.159 18.159 0 0 0 453.95 68.4 A 16.219 16.219 0 0 0 460.028 71.155 Z M 50.1 0 L 6.1 52.2 L 6.1 40.8 L 39.7 0 L 50.1 0 Z M 17.1 34.6 L 23 28.1 L 51.7 70.7 L 41.4 70.7 L 17.1 34.6 Z M 192 64.6 A 19.937 19.937 0 0 0 196.537 64.117 Q 199.701 63.377 201.928 61.507 A 11.792 11.792 0 0 0 203.7 59.65 A 16.451 16.451 0 0 0 206.296 54.512 Q 207.011 52.236 207.301 49.486 A 37.994 37.994 0 0 0 207.5 45.5 A 35.376 35.376 0 0 0 207.129 40.208 Q 206.695 37.347 205.755 35.025 A 16.189 16.189 0 0 0 203.7 31.35 Q 199.9 26.3 192 26.3 A 18.065 18.065 0 0 0 187.641 26.793 A 11.508 11.508 0 0 0 180.8 31.35 Q 177.2 36.4 177.2 45.5 A 37.799 37.799 0 0 0 177.552 50.835 Q 178.325 56.247 180.8 59.65 A 11.562 11.562 0 0 0 187.815 64.158 A 18.594 18.594 0 0 0 192 64.6 Z M 403.4 64.6 A 19.937 19.937 0 0 0 407.937 64.117 Q 411.101 63.377 413.328 61.507 A 11.792 11.792 0 0 0 415.1 59.65 A 16.451 16.451 0 0 0 417.696 54.512 Q 418.411 52.236 418.701 49.486 A 37.994 37.994 0 0 0 418.9 45.5 A 35.376 35.376 0 0 0 418.529 40.208 Q 418.095 37.347 417.155 35.025 A 16.189 16.189 0 0 0 415.1 31.35 Q 411.3 26.3 403.4 26.3 A 18.065 18.065 0 0 0 399.041 26.793 A 11.508 11.508 0 0 0 392.2 31.35 Q 388.6 36.4 388.6 45.5 A 37.799 37.799 0 0 0 388.952 50.835 Q 389.725 56.247 392.2 59.65 A 11.562 11.562 0 0 0 399.215 64.158 A 18.594 18.594 0 0 0 403.4 64.6 Z M 463.1 64.6 A 19.937 19.937 0 0 0 467.637 64.117 Q 470.801 63.377 473.028 61.507 A 11.792 11.792 0 0 0 474.8 59.65 A 16.451 16.451 0 0 0 477.396 54.512 Q 478.111 52.236 478.401 49.486 A 37.994 37.994 0 0 0 478.6 45.5 A 35.376 35.376 0 0 0 478.229 40.208 Q 477.795 37.347 476.855 35.025 A 16.189 16.189 0 0 0 474.8 31.35 Q 471 26.3 463.1 26.3 A 18.065 18.065 0 0 0 458.741 26.793 A 11.508 11.508 0 0 0 451.9 31.35 Q 448.3 36.4 448.3 45.5 A 37.799 37.799 0 0 0 448.652 50.835 Q 449.425 56.247 451.9 59.65 A 11.562 11.562 0 0 0 458.915 64.158 A 18.594 18.594 0 0 0 463.1 64.6 Z M 356.9 43.6 L 356.9 51.1 L 322.1 51.1 L 322.1 43.6 L 356.9 43.6 Z" vector-effect="non-scaling-stroke"/></g></svg>